{"title":"GangbangArena - Natascha Used And Abused","uid":10796005,"size":241995310,"categoryP":"porn","categoryS":"movie_clips","magnet":"?xt=urn:btih:945eec3c32508b918a6c5bca685747e1896aacf5&amp;dn=GangbangArena+-+Natascha+Used+And+Abused&amp;tr=udp%3A%2F%2Ftracker.openbittorrent.com%3A80&amp;tr=udp%3A%2F%2Fopen.demonii.com%3A1337&amp;tr=udp%3A%2F%2Ftracker.coppersurfer.tk%3A6969&amp;tr=udp%3A%2F%2Fexodus.desync.com%3A6969","seeders":5,"leechers":0,"uploader":"ThousandPeers","files":-1,"time":1408293953,"description":"Video\nID                                       : 2\nFormat                                   : VC-1\nFormat profile                           : Main\nCodec ID                                 : WMV3\nCodec ID/Info                            : Windows Media Video 9\nCodec ID/Hint                            : WMV3\nDescription of the codec                 : Windows Media Video V9 - 720 x 576, 25.00 fps, 1000 kbps (CBR)\nDuration                                 : 29mn 32s\nBit rate                                 : 1 001 Kbps\nWidth                                    : 720 pixels\nHeight                                   : 576 pixels\nDisplay aspect ratio                     : 5:4\nFrame rate                               : 25.000 fps\nStandard                                 : PAL\nBit depth                                : 8 bits\nScan type                                : Progressive\nCompression mode                         : Lossy\nBits/(Pixel*Frame)                       : 0.097\nStream size                              : 211 MiB (92%)\nLanguage                                 : English (US)\n\nAudio\nID                                       : 1\nFormat                                   : WMA\nFormat version                           : Version 2\nCodec ID                                 : 161\nCodec ID/Info                            : Windows Media Audio\nDescription of the codec                 : Windows Media Audio V9 Standard - 96 kbps, 44 kHz, 16 bit, Stereo (VBR)\nDuration                                 : 29mn 32s\nBit rate mode                            : Constant\nBit rate                                 : 96.0 Kbps\nChannel(s)                               : 2 channels\nSampling rate                            : 44.1 KHz\nBit depth                                : 16 bits\nStream size                              : 20.3 MiB (9%)\nLanguage                                 : English (US)\n","torrent":{"xt":"urn:btih:945eec3c32508b918a6c5bca685747e1896aacf5","amp;dn":"GangbangArena+-+Natascha+Used+And+Abused","amp;tr":["udp%3A%2F%2Ftracker.openbittorrent.com%3A80","udp%3A%2F%2Fopen.demonii.com%3A1337","udp%3A%2F%2Ftracker.coppersurfer.tk%3A6969","udp%3A%2F%2Fexodus.desync.com%3A6969"],"infoHash":"945eec3c32508b918a6c5bca685747e1896aacf5","infoHashBuffer":{"type":"Buffer","data":[148,94,236,60,50,80,139,145,138,108,91,202,104,87,71,225,137,106,172,245]},"announce":[],"urlList":[]}}